<?xml version="1.0" encoding="utf-8"?>
<!-- Generator: Adobe Illustrator 21.1.0, SVG Export Plug-In . SVG Version: 6.00 Build 0)  -->
<svg version="1.1" xmlns="http://www.w3.org/2000/svg" xmlns:xlink="http://www.w3.org/1999/xlink" x="0px" y="0px"
	 viewBox="0 0 500 500" style="enable-background:new 0 0 500 500;" xml:space="preserve">
<style type="text/css">
	.st0{fill:#FFFFFF;}
	.st1{fill:#B5B5B5;}
	.st2{fill:#FDC635;}
	.st3{fill:#EDE47B;}
	.st4{fill:#FF788C;}
	.st5{fill:#FF9A55;}
	.st6{fill:#BABA2F;}
	.st7{fill:#75D8C7;}
	.st8{fill:#FEFEFE;}
	.st9{fill:#EAE9E8;}
	.st10{fill:#848484;}
	.st11{fill:#EF609A;}
</style>
<g id="BACKGROUND">
	<rect class="st0" width="500" height="500"/>
</g>
<g id="OBJECTS">
	<g>
		<g>
			<g>
				<circle class="st1" cx="284.2" cy="135.9" r="15.3"/>
			</g>
			<g>
				<circle class="st1" cx="144.2" cy="207.4" r="15.3"/>
			</g>
			<g>
				<circle class="st1" cx="335.4" cy="249.3" r="15.3"/>
			</g>
			<g>
				<circle class="st1" cx="456.8" cy="252" r="15.3"/>
			</g>
			<g>
				<circle class="st1" cx="280.5" cy="216.8" r="15.3"/>
			</g>
			<g>
				<circle class="st1" cx="141.9" cy="326.4" r="15.3"/>
			</g>
			<g>
				<circle class="st1" cx="59.1" cy="225.3" r="15.3"/>
			</g>
			<g>
				<circle class="st1" cx="180.4" cy="130.9" r="10.4"/>
			</g>
			<g>
				<circle class="st1" cx="179.3" cy="267.3" r="10.4"/>
			</g>
			<g>
				<circle class="st1" cx="38.3" cy="277.6" r="10.4"/>
			</g>
			<g>
				<circle class="st1" cx="309.8" cy="65.2" r="10.4"/>
			</g>
			<g>
				<circle class="st1" cx="407.8" cy="120.6" r="10.4"/>
			</g>
			<g>
				<polygon class="st1" points="240,258.8 216.7,189.8 180,131.2 131.2,62.3 132,61.7 180.8,130.6 217.6,189.4 241,258.5 				"/>
			</g>
			<g>
				<polygon class="st1" points="202,277.4 180.1,268.8 180,268.6 143.7,207.7 106.1,142.6 59.5,225.6 58.6,225.1 106.1,140.5 
					144.6,207.1 180.8,268 202.4,276.5 				"/>
			</g>
			<g>
				<polygon class="st1" points="90.4,339 93.9,280 43.8,280 43.8,279 95,279 91.5,337.8 141.7,327.8 197.7,293 198.2,293.9 
					142.1,328.8 142,328.8 				"/>
			</g>
			<g>
				<polygon class="st1" points="266.7,259.8 265.8,259.5 280,216.7 283.7,136.1 243.1,83.6 309.6,64.7 309.9,65.6 244.8,84.2 
					284.7,135.7 284.7,135.9 281,216.9 281,216.9 				"/>
			</g>
			<g>
				<polygon class="st1" points="299.7,276.7 299.1,275.9 334.8,249 330.7,178.5 400.4,183.6 407.3,121 351.6,99.4 352,98.5 
					408.4,120.3 401.3,184.7 331.8,179.5 335.9,249.5 				"/>
			</g>
			<g>
				<polygon class="st1" points="347.3,375.7 306.4,337.5 307.1,336.7 347.2,374.3 403.4,311.3 401.1,189.6 457.1,251.7 
					456.4,252.3 402.2,192.3 404.4,311.6 404.3,311.8 				"/>
			</g>
			<g>
				<g>
					<circle class="st2" cx="92.5" cy="279" r="25.8"/>
				</g>
				<g>
					<g>
						<g>
							<path class="st0" d="M94.2,295.2v-7.8c0-0.9-0.8-1.7-1.7-1.7c-1,0-1.7,0.8-1.7,1.7v7.8H94.2z"/>
						</g>
						<g>
							<path class="st0" d="M89.3,295.2v-5c0-0.9-0.8-1.7-1.7-1.7c-1,0-1.7,0.8-1.7,1.7v5H89.3z"/>
						</g>
						<g>
							<path class="st0" d="M99.1,295.2v-10.4c0-1-0.8-1.7-1.7-1.7s-1.7,0.8-1.7,1.7v10.4H99.1z"/>
						</g>
						<g>
							<path class="st0" d="M104.1,295.2v-13.4c0-1-0.8-1.7-1.7-1.7c-0.9,0-1.7,0.8-1.7,1.7v13.4H104.1z"/>
						</g>
					</g>
					<g>
						<g>
							
								<ellipse transform="matrix(0.4899 -0.8718 0.8718 0.4899 -181.5751 221.1091)" class="st0" cx="98.1" cy="265.7" rx="2.8" ry="2.8"/>
						</g>
						<g>
							<path class="st0" d="M93.7,276.2c-0.9,1.7-1.7,1.4-3.1,0.6l0,0c-1.5-0.8-1.9-2.9-1-4.6l2.1-3.7c1-1.7,2.9-2.4,4.4-1.6l0,0
								c1.5,0.8,1.9,2.9,1,4.6L93.7,276.2z"/>
						</g>
						<g>
							<g>
								<path class="st0" d="M95.3,276.6l-4.5-2.3l-1.8,1.8l5.3,2.6c0.6,0.3,1.3,0.1,1.6-0.5C96.1,277.5,95.8,276.9,95.3,276.6z"/>
							</g>
							<g>
								<path class="st0" d="M98.3,275.1c-0.5,0.2-1,0-1.2-0.5l-2.3-5.2c-0.2-0.5,0-1,0.5-1.2l0,0c0.5-0.2,1,0,1.2,0.5l2.3,5.2
									C99,274.3,98.8,274.9,98.3,275.1L98.3,275.1z"/>
							</g>
							<g>
								<path class="st0" d="M97.1,282.7c-0.6,0.3-1.3,0-1.5-0.6l-1.8-4c-0.3-0.6,0-1.3,0.6-1.5l0,0c0.6-0.3,1.3,0,1.5,0.6l1.8,4
									C97.9,281.8,97.7,282.5,97.1,282.7L97.1,282.7z"/>
							</g>
						</g>
						<g>
							<g>
								<path class="st0" d="M85.8,278.4c-0.5-0.4-0.5-1.1-0.1-1.6l5.9-8c0.4-0.5-0.2,2.2,0.2,2.7l0,0c0.5,0.4,0.5,1.2,0.1,1.6
									l-4.5,5.2C87,278.7,86.2,278.8,85.8,278.4L85.8,278.4z"/>
							</g>
							<g>
								<path class="st0" d="M80.9,276.9c0.1-0.6,0.7-1.1,1.3-1l4.3,0.6c0.6,0.1,1.1,0.7,1,1.3l0,0c-0.1,0.6-0.7,1.1-1.3,1l-4.3-0.6
									C81.3,278.1,80.9,277.5,80.9,276.9L80.9,276.9z"/>
							</g>
						</g>
						<g>
							<path class="st0" d="M97,274.1c0-0.6,0.5-1,1.1-0.9l3.8,0.3c0.6,0,1,0.5,0.9,1.1l0,0c0,0.6-0.5,1-1.1,0.9l-3.8-0.3
								C97.4,275.2,97,274.7,97,274.1L97,274.1z"/>
						</g>
						<g>
							<path class="st0" d="M87.3,268.1c0-0.6,0.4-1,0.9-1.1l6-0.4c0.6,0,1,0.4,1.1,0.9l0,0c0,0.6-0.4,1-0.9,1.1l-6,0.4
								C87.8,269,87.3,268.6,87.3,268.1L87.3,268.1z"/>
						</g>
						<g>
							<path class="st0" d="M88.7,267.1c0.5,0.2,0.7,0.8,0.5,1.3l-1.6,3.5c-0.2,0.5-0.8,0.7-1.3,0.5l0,0c-0.5-0.2-0.7-0.8-0.5-1.3
								l1.6-3.5C87.6,267.1,88.2,266.9,88.7,267.1L88.7,267.1z"/>
						</g>
					</g>
				</g>
			</g>
			<g>
				<g>
					<circle class="st3" cx="399.5" cy="186.5" r="33.8"/>
				</g>
				<g>
					<g>
						<g>
							<path class="st0" d="M421.4,187.9c-0.5-0.8-3.3-0.4-4.1,0.1l-4.9,2.6c-4.2,1.4-10.3,1.6-10.8,0.4c-0.3-0.9,6.3-0.7,6.3-0.7
								c0.9,0,1.7-0.8,1.7-1.7c0-0.9-0.8-1.1-1.7-1.1c0,0-3.7-0.4-12.3-0.6c-0.8,0-3.3,0.9-6.1,2.2l-2,0.9l1.9,5.8
								c1.5,0.2,3.3,0.4,4.9,0.7c4.3,0.6,6.7,1,9.1,1.1c0,0,3.9-0.6,5.3-1.2c3.1-1.5,11.7-6.4,11.7-6.4
								C421.2,189.3,421.9,188.7,421.4,187.9z"/>
						</g>
						<g>
							
								<rect x="382.8" y="190.1" transform="matrix(0.9514 -0.3079 0.3079 0.9514 -41.0676 128.0712)" class="st0" width="4.9" height="8"/>
						</g>
						<g>
							
								<rect x="379" y="191" transform="matrix(0.9515 -0.3078 0.3078 0.9515 -41.8191 126.8909)" class="st0" width="4.9" height="10.1"/>
						</g>
					</g>
					<g>
						<g>
							<path class="st0" d="M407.7,181.9c0-0.1,0-0.3,0-0.4c0-0.1,0-0.3-0.1-0.4c-0.5-0.1-1.1-0.1-1.2-0.3c-0.1-0.2,0.2-0.7,0.5-1.1
								c-0.2-0.2-0.3-0.4-0.5-0.6c-0.5,0.2-1,0.5-1.1,0.4c-0.2-0.1-0.2-0.7-0.2-1.2c-0.3-0.1-0.5-0.1-0.8-0.2c-0.2,0.5-0.5,1-0.7,1
								c-0.2,0-0.6-0.4-0.9-0.8c-0.3,0.1-0.5,0.2-0.7,0.3c0.1,0.5,0.2,1.1,0,1.2c-0.2,0.1-0.7,0-1.2-0.2c-0.2,0.2-0.3,0.5-0.4,0.7
								c0.4,0.4,0.8,0.8,0.8,1c0,0.2-0.6,0.4-1.1,0.6c0,0.1,0,0.3,0,0.4c0,0.1,0,0.3,0.1,0.4c0.5,0.1,1.1,0.1,1.2,0.3
								c0.1,0.2-0.2,0.7-0.5,1.1c0.2,0.2,0.3,0.4,0.5,0.6c0.5-0.2,1-0.5,1.1-0.4c0.2,0.1,0.2,0.7,0.2,1.2c0.3,0.1,0.5,0.1,0.8,0.2
								c0.2-0.5,0.5-1,0.7-1c0.2,0,0.6,0.4,0.9,0.8c0.3-0.1,0.5-0.2,0.7-0.3c-0.1-0.5-0.2-1.1,0-1.2c0.2-0.1,0.7,0,1.2,0.2
								c0.2-0.2,0.3-0.5,0.4-0.7c-0.4-0.4-0.8-0.8-0.8-1C406.7,182.2,407.3,182,407.7,181.9z M404.1,183.7c-1,0.1-2-0.6-2.1-1.7
								c-0.1-1,0.6-2,1.7-2.1c1-0.1,2,0.6,2.1,1.7C405.9,182.7,405.1,183.6,404.1,183.7z"/>
						</g>
						<g>
							<path class="st0" d="M415.5,182.2c0-0.1,0-0.3,0-0.4c0-0.1,0-0.3-0.1-0.4c-0.5-0.1-1.1-0.1-1.2-0.3c-0.1-0.2,0.2-0.7,0.5-1.1
								c-0.2-0.2-0.3-0.4-0.5-0.6c-0.5,0.2-1,0.5-1.1,0.4c-0.2-0.1-0.2-0.7-0.2-1.2c-0.3-0.1-0.5-0.1-0.8-0.2c-0.2,0.5-0.5,1-0.7,1
								c-0.2,0-0.6-0.4-0.9-0.8c-0.3,0.1-0.5,0.2-0.7,0.3c0.1,0.5,0.2,1.1,0,1.2c-0.2,0.1-0.7,0-1.2-0.2c-0.2,0.2-0.3,0.5-0.4,0.7
								c0.4,0.4,0.8,0.8,0.8,1c0,0.2-0.6,0.4-1.1,0.6c0,0.1,0,0.3,0,0.4c0,0.1,0,0.3,0.1,0.4c0.5,0.1,1.1,0.1,1.2,0.3
								c0.1,0.2-0.2,0.7-0.5,1.1c0.2,0.2,0.3,0.4,0.5,0.6c0.5-0.2,1-0.5,1.1-0.4c0.2,0.1,0.2,0.7,0.2,1.2c0.3,0.1,0.5,0.1,0.8,0.2
								c0.2-0.5,0.5-1,0.7-1c0.2,0,0.6,0.4,0.9,0.8c0.3-0.1,0.5-0.2,0.7-0.3c-0.1-0.5-0.2-1.1,0-1.2c0.2-0.1,0.7,0,1.2,0.2
								c0.2-0.2,0.3-0.5,0.4-0.7c-0.4-0.4-0.8-0.8-0.8-1C414.4,182.6,415,182.4,415.5,182.2z M411.8,184.1c-1,0.1-2-0.6-2.1-1.7
								c-0.1-1,0.6-2,1.7-2.1c1-0.1,2,0.6,2.1,1.7C413.6,183,412.9,184,411.8,184.1z"/>
						</g>
						<g>
							<path class="st0" d="M412,174.4c0-0.1-0.1-0.3-0.1-0.4c0-0.1-0.1-0.3-0.1-0.4c-0.5,0-1.1,0.1-1.2-0.1
								c-0.1-0.2,0.1-0.7,0.3-1.2c-0.2-0.2-0.4-0.3-0.7-0.5c-0.4,0.3-0.8,0.7-1,0.6c-0.2-0.1-0.3-0.6-0.4-1.1c-0.3,0-0.5,0-0.8,0
								c-0.1,0.5-0.3,1.1-0.5,1.1c-0.2,0.1-0.6-0.3-1-0.7c-0.2,0.1-0.5,0.3-0.7,0.5c0.2,0.5,0.4,1,0.3,1.2c-0.1,0.2-0.7,0.1-1.2,0.1
								c-0.1,0.2-0.2,0.5-0.3,0.8c0.4,0.3,0.9,0.6,0.9,0.8c0,0.2-0.5,0.5-0.9,0.8c0,0.1,0.1,0.3,0.1,0.4c0,0.1,0.1,0.3,0.1,0.4
								c0.5,0,1.1-0.1,1.2,0.1c0.1,0.2-0.1,0.7-0.3,1.2c0.2,0.2,0.4,0.3,0.6,0.5c0.4-0.3,0.8-0.7,1-0.6c0.2,0.1,0.3,0.6,0.4,1.1
								c0.3,0,0.5,0,0.8,0c0.1-0.5,0.3-1.1,0.5-1.1c0.2-0.1,0.6,0.3,1,0.7c0.2-0.1,0.5-0.3,0.7-0.5c-0.2-0.5-0.4-1-0.3-1.2
								c0.1-0.2,0.7-0.1,1.2-0.1c0.1-0.2,0.2-0.5,0.3-0.8c-0.4-0.3-0.9-0.6-0.9-0.8C411,175,411.5,174.7,412,174.4z M408.8,177
								c-1,0.3-2-0.3-2.4-1.2c-0.3-1,0.3-2,1.2-2.4c1-0.3,2,0.2,2.4,1.2C410.3,175.6,409.8,176.7,408.8,177z"/>
						</g>
					</g>
				</g>
			</g>
			<g>
				<g>
					<circle class="st4" cx="351.8" cy="99" r="33.8"/>
				</g>
				<g>
					<g>
						<g>
							<g>
								<path class="st0" d="M346.2,95.4c0-2.3,1.4-4.3,3.5-5.2l-0.5-1.2c-2.5,1-4.3,3.5-4.3,6.4c0,2.3,1.3,6.9,3.4,9.6l1-0.8
									C347.5,101.8,346.2,97.6,346.2,95.4z"/>
							</g>
							<g>
								<path class="st0" d="M351.8,88.5c-0.6,0-1.1,0.1-1.7,0.2l0.4,1.2c0.4-0.1,0.8-0.2,1.3-0.2c0,0,0,0,0.1,0L351.8,88.5
									C351.8,88.5,351.8,88.5,351.8,88.5z"/>
							</g>
						</g>
						<g>
							<g>
								<g>
									<path class="st0" d="M351.8,113.2c-6.5,0-10.8-12.8-10.8-18c0-5.9,4.8-10.8,10.8-10.8s10.8,4.8,10.8,10.8
										C362.6,100.4,358.3,113.2,351.8,113.2z M351.8,87c-4.5,0-8.2,3.7-8.2,8.2c0,4.9,4.1,15.5,8.2,15.5c4.1,0,8.2-10.6,8.2-15.5
										C360,90.7,356.3,87,351.8,87z"/>
								</g>
							</g>
							<g>
								<g>
									<path class="st0" d="M355,110.5v4.4c0,1.8-1.4,3.2-3.2,3.2c-1.8,0-3.2-1.4-3.2-3.2v-5.4l-2.1-2.6c-0.3,0.6-0.4,1.3-0.4,2.1
										v5.9c0,3.2,2.6,5.7,5.7,5.7c3.2,0,5.7-2.6,5.7-5.7V109c0-0.4,0-0.8-0.1-1.2L355,110.5z"/>
								</g>
							</g>
						</g>
					</g>
					<g>
						<g>
							<g>
								<g>
									<rect x="335.4" y="93.1" class="st0" width="4.6" height="1.3"/>
								</g>
							</g>
							<g>
								<g>
									<rect x="363.7" y="93.1" class="st0" width="4.6" height="1.3"/>
								</g>
							</g>
						</g>
						<g>
							<g>
								<g>
									<rect x="351.2" y="77.3" class="st0" width="1.3" height="4.6"/>
								</g>
							</g>
						</g>
					</g>
					<g>
						<g>
							<g>
								<g>
									
										<rect x="341.2" y="81.4" transform="matrix(0.7072 -0.7071 0.7071 0.7072 40.9001 266.1788)" class="st0" width="1.3" height="4.6"/>
								</g>
							</g>
							<g>
								<g>
									
										<rect x="362.4" y="103.6" transform="matrix(0.707 -0.7072 0.7072 0.707 31.4499 287.7809)" class="st0" width="1.3" height="4.6"/>
								</g>
							</g>
						</g>
						<g>
							<g>
								<g>
									
										<rect x="337.9" y="104.7" transform="matrix(0.7073 -0.7069 0.7069 0.7073 25.1301 271.2977)" class="st0" width="4.6" height="1.3"/>
								</g>
							</g>
							<g>
								<g>
									<g>
										
											<rect x="359.3" y="83.3" transform="matrix(0.7065 -0.7077 0.7077 0.7065 46.762 280.5508)" class="st0" width="4.6" height="1.3"/>
									</g>
								</g>
							</g>
						</g>
					</g>
				</g>
			</g>
			<g>
				<g>
					<circle class="st5" cx="214.2" cy="191.5" r="33.8"/>
				</g>
				<g>
					<g>
						<g>
							<path class="st0" d="M214.2,197c-6.9,0-12.5-5.6-12.5-12.5c0-6.9,5.6-12.5,12.5-12.5c6.9,0,12.5,5.6,12.5,12.5
								C226.7,191.4,221.1,197,214.2,197z M214.2,174.6c-5.5,0-9.9,4.5-9.9,9.9c0,5.5,4.5,9.9,9.9,9.9c5.5,0,9.9-4.5,9.9-9.9
								C224.1,179,219.7,174.6,214.2,174.6z"/>
						</g>
					</g>
					<g>
						<g>
							<g>
								<path class="st0" d="M207.8,184.5c0-2.6,1.6-4.9,3.9-5.8l-0.8-1.8c-3,1.3-5,4.2-5,7.6c0,2,0.7,3.9,1.9,5.3l1.5-1.3
									C208.4,187.4,207.8,186,207.8,184.5z"/>
							</g>
						</g>
						<g>
							<g>
								<path class="st0" d="M214.2,176.2c-0.8,0-1.6,0.1-2.3,0.3l0.5,1.9c0.6-0.2,1.1-0.3,1.8-0.3c0,0,0.1,0,0.1,0L214.2,176.2
									C214.3,176.2,214.2,176.2,214.2,176.2z"/>
							</g>
						</g>
					</g>
					<g>
						<g>
							<rect x="212.4" y="195.5" class="st0" width="3.7" height="6"/>
						</g>
					</g>
					<g>
						<g>
							<path class="st0" d="M217.1,209.6c0,0.8-0.6,1.5-1.4,1.5h-3.1c-0.8,0-1.4-0.7-1.4-1.5v-8.9c0-0.8,0.6-1.5,1.4-1.5h3.1
								c0.8,0,1.4,0.7,1.4,1.5V209.6z"/>
						</g>
					</g>
				</g>
			</g>
			<g>
				<g>
					<circle class="st6" cx="108.1" cy="141.5" r="33.8"/>
				</g>
				<g>
					<g>
						<g>
							<g>
								<path class="st0" d="M119.4,132.7c4.3,5.5,3.9,13.5-1.1,18.5c-5.5,5.5-14.3,5.5-19.8,0c-5.5-5.5-5.5-14.3,0-19.8
									c5-5,13-5.4,18.5-1.2l1.5-1.5c-6.3-5.1-15.6-4.7-21.4,1.2c-6.3,6.3-6.3,16.5,0,22.7c6.3,6.3,16.5,6.3,22.7,0
									c5.9-5.9,6.2-15.2,1.1-21.5L119.4,132.7z"/>
							</g>
						</g>
						<g>
							<g>
								<path class="st0" d="M116.6,135.5c2.8,3.9,2.4,9.5-1.1,13c-3.9,3.9-10.4,3.9-14.3,0c-3.9-3.9-3.9-10.3,0-14.3
									c3.5-3.5,9-3.9,12.9-1.1l1.5-1.5c-4.8-3.5-11.6-3.2-15.9,1.2c-4.8,4.7-4.8,12.5,0,17.2c4.7,4.8,12.5,4.8,17.2,0
									c4.3-4.3,4.7-11.2,1.1-15.9L116.6,135.5z"/>
							</g>
						</g>
						<g>
							<g>
								<path class="st0" d="M113.7,138.4c1.3,2.3,0.9,5.3-1,7.2c-2.4,2.4-6.2,2.4-8.6,0c-2.4-2.4-2.4-6.2,0-8.6
									c1.9-1.9,4.8-2.3,7.1-1.1l1.5-1.5c-3.1-2-7.4-1.6-10.1,1.1c-3.2,3.2-3.2,8.3,0,11.5c3.2,3.2,8.3,3.2,11.5,0
									c2.8-2.8,3.1-7,1.1-10.2L113.7,138.4z"/>
							</g>
						</g>
					</g>
					<g>
						<g>
							<path class="st0" d="M125.7,120.2l-5.9,5.9l0.6,1.9l-11.9,11.9c-0.4,0.4-0.4,1,0,1.3c0.4,0.4,1,0.4,1.3,0l12.1-12.1l1.6,0.4
								l5.4-5.4h-3.6L125.7,120.2z"/>
						</g>
					</g>
				</g>
			</g>
			<g>
				<g>
					<circle class="st7" cx="399.8" cy="312.6" r="24.3"/>
				</g>
				<g>
					<g>
						<g>
							<path class="st0" d="M408.3,300.8h-14.3c0,0,1.6,0,1.6,0.1c0,6,2.1,10.9,6.4,11.3c-0.2,0-0.4,0-0.5,0
								c-4.7,0-8.5-5.1-8.5-11.3c0,0,0,0,0-0.1h-1.6c0,0,0,0.1,0,0.1c0,6.6,3.8,12,8.5,12C404.5,312.9,408.3,307.5,408.3,300.8
								C408.3,300.9,408.3,300.9,408.3,300.8z"/>
						</g>
						<g>
							<g>
								<path class="st0" d="M409.9,299.4c0,0.6-0.5,1.1-1.1,1.1h-17.9c-0.6,0-1.1-0.5-1.1-1.1l0,0c0-0.6,0.5-1.1,1.1-1.1h17.9
									C409.4,298.3,409.9,298.8,409.9,299.4L409.9,299.4z"/>
							</g>
						</g>
					</g>
					<g>
						<g>
							<path class="st0" d="M399.8,312.2c-4.7,0-8.5,5.4-8.5,12c0,0,0,0.1,0,0.1h12.8c0,0,0-0.1,0-0.1c0-6-2.1-10.9-6.4-11.3
								c0.2,0,0.4,0,0.6,0c4.7,0,8.5,5.1,8.5,11.3c0,0,0,0.1,0,0.1h1.6c0,0,0-0.1,0-0.1C408.3,317.6,404.5,312.2,399.8,312.2z"/>
						</g>
						<g>
							<path class="st0" d="M389.7,325.8c0-0.6,0.5-1.1,1.1-1.1h17.9c0.6,0,1.1,0.5,1.1,1.1l0,0c0,0.6-0.5,1.1-1.1,1.1h-17.9
								C390.2,326.9,389.7,326.4,389.7,325.8L389.7,325.8z"/>
						</g>
					</g>
				</g>
			</g>
			<g>
				<g>
					<circle class="st7" cx="246.9" cy="81.9" r="25.5"/>
				</g>
				<g>
					<g>
						<path class="st8" d="M247.7,81.3v-6.9c0.9,0.3,1.4,1.2,1.4,2.6v0.6h2v-0.5c0-2.5-1.1-4.3-3.4-4.6v-1.2H246v1.2
							c-2.2,0.3-3.3,2-3.3,4.6c0,2.7,1.7,4.1,3.3,5.4v6.9c-0.9-0.3-1.4-1.2-1.4-2.5v-1.2h-2v1.1c0,2.5,1.1,4.3,3.3,4.6v1.1h1.7v-1.1
							c2.3-0.3,3.4-2.1,3.4-4.6C251.1,84,249.3,82.6,247.7,81.3z M246,79.7c-0.7-0.8-1.2-1.6-1.2-2.8c0-1.3,0.4-2.1,1.2-2.5V79.7z
							 M247.7,89.4V84c0.8,0.8,1.3,1.7,1.3,2.9C249,88.2,248.6,89.1,247.7,89.4z"/>
					</g>
					<g>
						<g>
							<path class="st8" d="M246.9,96.8c-8.2,0-14.9-6.7-14.9-14.9c0-8.2,6.7-14.9,14.9-14.9c8.2,0,14.9,6.7,14.9,14.9
								C261.8,90.1,255.1,96.8,246.9,96.8z M246.9,69.5c-6.8,0-12.4,5.6-12.4,12.4c0,6.8,5.6,12.4,12.4,12.4
								c6.8,0,12.4-5.6,12.4-12.4C259.3,75,253.7,69.5,246.9,69.5z"/>
						</g>
					</g>
				</g>
			</g>
			<g>
				<g>
					<circle class="st0" cx="331.3" cy="179" r="18.4"/>
					<path class="st1" d="M331.3,197.9c-10.4,0-18.9-8.5-18.9-18.9c0-10.4,8.5-18.9,18.9-18.9c10.4,0,18.9,8.5,18.9,18.9
						C350.2,189.4,341.7,197.9,331.3,197.9z M331.3,161.1c-9.9,0-17.9,8-17.9,17.9c0,9.9,8,17.9,17.9,17.9c9.9,0,17.9-8,17.9-17.9
						C349.2,169.1,341.1,161.1,331.3,161.1z"/>
				</g>
				<g>
					<circle class="st1" cx="331.3" cy="179" r="15.3"/>
				</g>
			</g>
			<g>
				<g>
					<circle class="st0" cx="131.6" cy="62" r="18"/>
					<path class="st1" d="M131.6,80.5c-10.2,0-18.5-8.3-18.5-18.5s8.3-18.5,18.5-18.5c10.2,0,18.5,8.3,18.5,18.5
						S141.8,80.5,131.6,80.5z M131.6,44.5c-9.7,0-17.5,7.9-17.5,17.5c0,9.7,7.9,17.5,17.5,17.5c9.7,0,17.5-7.9,17.5-17.5
						C149.1,52.4,141.2,44.5,131.6,44.5z"/>
				</g>
				<g>
					<circle class="st1" cx="131.6" cy="62" r="15.3"/>
				</g>
			</g>
			<g>
				<g>
					<circle class="st0" cx="91" cy="338.4" r="9.8"/>
					<path class="st1" d="M91,348.6c-5.7,0-10.3-4.6-10.3-10.3s4.6-10.3,10.3-10.3c5.7,0,10.3,4.6,10.3,10.3S96.6,348.6,91,348.6z
						 M91,329.1c-5.1,0-9.3,4.2-9.3,9.3c0,5.1,4.2,9.3,9.3,9.3c5.1,0,9.3-4.2,9.3-9.3C100.3,333.3,96.1,329.1,91,329.1z"/>
				</g>
				<g>
					<circle class="st1" cx="91" cy="338.4" r="7"/>
				</g>
			</g>
			<g>
				<g>
					<circle class="st0" cx="347.3" cy="375" r="13.5"/>
					<path class="st1" d="M347.3,389c-7.7,0-14-6.3-14-14c0-7.7,6.3-14,14-14c7.7,0,14,6.3,14,14C361.3,382.7,355,389,347.3,389z
						 M347.3,362c-7.2,0-13,5.8-13,13c0,7.2,5.8,13,13,13c7.2,0,13-5.8,13-13C360.3,367.8,354.4,362,347.3,362z"/>
				</g>
				<g>
					<circle class="st1" cx="347.3" cy="375" r="10.4"/>
				</g>
			</g>
		</g>
		<g>
			<g>
				<path class="st9" d="M232.8,456.5h78.8c-1.4-6.7-7.2-41.1,5.9-89.7c0.6-2,1.3-3.8,2.2-5.4c0.4-0.7,0.7-1.3,1-1.9c0,0,0,0,0,0
					c4.7-9.6,7.4-20.5,7.4-31.9c0-40.1-32.5-72.6-72.6-72.6s-72.2,24.8-72.2,64.9c0,0-0.1,6.7,0.4,16.4
					c-1.5,6.6-22.3,28.9-23.3,32.9c-1,4,0.8,5.4,1.3,6.1c0.5,0.8,14.3,2.7,15.5,5.8c1.3,3.1-1.3,9.4-1.6,10.4c1.2,2.2,2,4.2,2,4.2
					l8.1,2.5c0,0-5,0.2-5.7,2.5c-0.7,2.3,0.1,5.9,0.1,5.9s5.2,1.3,7.5,4.2c3.5,4.3,2.4,15.6,2.4,15.6s3,5.2,11.6,6.9
					c5.2-0.8,14.2-1.2,24.3-1.6C231.9,435.8,233.6,446.8,232.8,456.5z"/>
			</g>
			<g>
				<g>
					<g>
						<path class="st10" d="M216.4,330.4c0,0-19,2.6-19.3-12.7c-8.4-4.4-4.7-15.5-1.3-17c-3-9.7,2.7-20,9.7-21
							c5.4-12.2,20.7-17.7,32.3-15c14-7.5,34.5-6.5,47.9,4.8c-4.7,1.3-13.4,5.7-16.3,12.8c-4.4,0.1-10,4.3-6.2,12.3
							c3.8,8-1.5,14.6-13.5,15.6c-10.8,1-17.9,2.4-24.7,8.5C217.7,325.5,216.4,330.4,216.4,330.4z"/>
					</g>
					<g>
						<g>
							<path class="st4" d="M218.4,334.6c0,0,1.5-8,7.9-13.2c6.4-5.2,13.9-7.8,21.7-8.1c7.8-0.3,12.3-2.5,16-3.9
								c3.8-1.4,19.1-3.1,31,13.2c3.1-1.6,10.1,0.1,10.6,7.4c4.5,5.9,10.7,11.2,7.9,17.5c-0.8,2-14.2,0.3-21.3-2.3
								c-8.1-2.9-26-4.9-41.4,0.2C236,350.4,219.3,343.5,218.4,334.6z"/>
						</g>
						<g>
							<g>
								<g>
									<g>
										<path class="st0" d="M253.3,339.7l-1.7-1c0.1-0.1,1.6-2.6,4.5-4.4c2.7-1.6,7.1-2.9,12.9,0.5l-1,1.7
											C258.6,331,253.5,339.3,253.3,339.7z"/>
									</g>
								</g>
								<g>
									<g>
										<path class="st0" d="M259.7,334.4c-8.1-8.6-3.3-17-3.2-17.1l1.7,1l-0.9-0.5l0.9,0.5c-0.2,0.3-4.1,7.3,2.9,14.7
											L259.7,334.4z"/>
									</g>
								</g>
							</g>
							<g>
								<g>
									<g>
										<path class="st0" d="M297.9,331.2c-1.1,0-2.2-0.2-3.3-0.7c-2-0.9-3.7-2.7-4.7-4.8c-1.5,0.2-3,0-4.4-0.8
											c-1.5-0.8-2.6-2.2-3.2-3.8c-1.3,0.1-2.4-0.1-3.5-0.8c-2.4-1.5-3.1-4.5-3.1-4.7l2-0.4c0,0,0.6,2.4,2.2,3.4
											c0.8,0.5,1.8,0.6,2.9,0.4l1-0.2l0.2,1c0.3,1.5,1.2,2.7,2.5,3.4c1.2,0.7,2.5,0.8,3.7,0.4l0.9-0.3l0.3,0.9
											c0.7,2,2.1,3.7,4,4.5c1.5,0.7,3.1,0.7,4.6,0.1l0.7,1.9C299.8,331,298.8,331.2,297.9,331.2z"/>
									</g>
								</g>
								<g>
									<g>
										<path class="st0" d="M273.6,334.4l-0.3-2c7.8-1.2,11.7-8.8,11.8-8.9l1.8,0.9C286.7,324.7,282.4,333,273.6,334.4z"/>
									</g>
								</g>
							</g>
							<g>
								<g>
									<g>
										<path class="st0" d="M246.4,343.2c0,0-1-2.2-2.8-2.9c-0.9-0.3-1.8-0.3-2.9,0.2l-0.9,0.4l-0.4-0.9
											c-0.6-1.4-1.7-2.4-3.1-2.9c-1.3-0.4-2.6-0.3-3.7,0.3l-0.9,0.5l-0.5-0.9c-1.1-1.9-2.8-3.2-4.7-3.7
											c-1.6-0.4-3.2-0.2-4.5,0.7l-1.1-1.7c1.8-1.2,4-1.5,6.1-1c2.2,0.5,4.1,1.9,5.5,3.9c1.4-0.5,3-0.5,4.5,0
											c1.6,0.6,3,1.7,3.9,3.1c1.2-0.4,2.4-0.3,3.6,0.1c2.6,1,3.9,3.9,3.9,4L246.4,343.2z"/>
									</g>
								</g>
								<g>
									<g>
										<path class="st0" d="M237.5,336.4l-1.9-0.6c0.1-0.4,2.8-9.3,11.2-12.3l0.7,1.9C240.1,328,237.6,336.3,237.5,336.4z"/>
									</g>
								</g>
							</g>
							<g>
								<g>
									<path class="st0" d="M296,342.1l-0.9-1c-4.2-4.7-9.2-0.7-9.4-0.5l-1.3-1.5c2.2-1.8,7.1-3.9,11.3-0.1c1-1.1,2.4-1.7,3.9-1.7
										c2.5-0.1,5.4,1.4,7,3.6l-1.6,1.2c-1.1-1.4-3.2-2.8-5.3-2.7c-1.3,0-2.3,0.6-3.1,1.8L296,342.1z"/>
								</g>
							</g>
							<g>
								<g>
									<path class="st0" d="M274.1,326.6c-0.4,0-0.9,0-1.3-0.1c-1.4-0.3-2.7-1-3.7-2.2c-1.2,1.1-2.7,1.5-4.2,1.4
										c-2.3-0.2-4.5-1.8-5.6-3.9l1.8-0.9c0.8,1.5,2.5,2.7,4.1,2.8c1.3,0.1,2.4-0.4,3.4-1.6l0.9-1.1l0.8,1.2
										c0.8,1.3,1.9,2.1,3.1,2.3c2.6,0.5,5.2-1.3,5.2-1.3l1.2,1.6C279.5,324.9,277,326.6,274.1,326.6z"/>
								</g>
							</g>
							<g>
								<g>
									<path class="st0" d="M230.6,326.1l-1.8-0.9c1.2-2.5,4.9-6.5,10.3-4.7c0.5-1.4,1.5-2.5,2.9-3.2c2.3-1.1,5.5-1,7.9,0.4
										l-1,1.7c-1.5-0.9-4.1-1.3-6-0.3c-1.2,0.6-1.9,1.5-2.1,2.9l-0.2,1.3l-1.2-0.5C233.7,320.2,230.8,325.9,230.6,326.1z"/>
								</g>
							</g>
						</g>
					</g>
					<g>
						<g>
							<g>
								<path class="st0" d="M254,290.2l-2-0.2c2.1-17-5.9-21.6-6.2-21.7l0.9-1.8C247.1,266.7,256.3,271.7,254,290.2z"/>
							</g>
						</g>
						<g>
							<g>
								<path class="st0" d="M251.6,272.3c-1.2,0-2.1-0.5-2.2-0.6l1-1.7c0,0,0.9,0.5,1.8,0.2c0.5-0.2,0.9-0.5,1.2-1.2l0.4-0.9
									l0.9,0.4c0.6,0.3,3.4,1.2,5.8,0.4c1.4-0.5,2.4-1.5,3.1-3l0.8-1.9l1,1.8c1.9,3.5,8.7,2.5,8.7,2.5l0.3,2c-0.3,0-6.6,1-9.8-2.2
									c-0.9,1.3-2,2.2-3.4,2.7c-2.4,0.9-5,0.4-6.5-0.1c-0.5,0.7-1.2,1.1-1.9,1.4C252.3,272.3,251.9,272.3,251.6,272.3z"/>
							</g>
						</g>
						<g>
							<g>
								<g>
									<path class="st0" d="M242.2,306.6l-1.7-1c0.1-0.2,2.7-4.5,7.6-5.7c3.1-0.8,6.4-0.2,9.8,1.8l-1,1.7
										C247.6,297.9,242.4,306.2,242.2,306.6z"/>
								</g>
							</g>
							<g>
								<g>
									<path class="st0" d="M248.6,301.3c-8.1-8.6-3.3-17-3.2-17.1l1.7,1l-0.9-0.5l0.9,0.5c-0.2,0.3-4.1,7.3,2.9,14.7L248.6,301.3
										z"/>
								</g>
							</g>
						</g>
						<g>
							<g>
								<path class="st0" d="M211.8,286l-2,0c0.2-6.9,4-11,11.3-12.2c1.9-3,4.3-4.8,7.3-5.5c5.2-1.2,9.9,1.7,10.1,1.8l-1.1,1.7
									c0,0-4.3-2.6-8.6-1.6c-2.5,0.6-4.6,2.3-6.3,5l-0.2,0.4l-0.5,0.1C215.2,276.6,211.9,279.9,211.8,286z"/>
							</g>
						</g>
						<g>
							<g>
								<g>
									<path class="st0" d="M238.7,301.5c-2.1-0.3-4-1.4-5.3-3.1c-1.3-1.8-2-4.1-1.8-6.5c-1.4-0.5-2.6-1.5-3.5-2.8
										c-0.9-1.4-1.2-3.2-1-4.9c-1.2-0.5-2.1-1.3-2.7-2.3c-1.4-2.5-0.5-5.5-0.5-5.6l1.9,0.6l-1-0.3l1,0.3c0,0-0.6,2.3,0.3,4.1
										c0.5,0.8,1.2,1.4,2.4,1.7l1,0.3l-0.3,1c-0.4,1.4-0.2,3,0.6,4.2c0.7,1.2,1.8,1.9,3,2.2l1,0.2l-0.2,1
										c-0.4,2.1,0.1,4.3,1.3,5.9c1,1.3,2.4,2.1,4,2.3L238.7,301.5z"/>
								</g>
							</g>
							<g>
								<g>
									<path class="st0" d="M218.5,292.7c-1.7,0-3.6-0.3-5.5-0.9l0.7-1.9c7.4,2.7,14.6-2.1,14.6-2.2l1.1,1.7
										C229.3,289.6,224.6,292.7,218.5,292.7z"/>
								</g>
							</g>
						</g>
						<g>
							<g>
								<path class="st0" d="M244.6,280.2c-4.8,0-8.3-2.5-8.7-3.1l0.8-0.6l0.7-0.7c0.1,0.1,6.8,5.3,14.4-0.1l1.2,1.6
									C250.1,279.5,247.2,280.2,244.6,280.2z"/>
							</g>
						</g>
						<g>
							<g>
								<path class="st0" d="M212.8,324.2c-2.9-0.1-5.5-1.3-7.2-3.6c-1.8-2.4-2.4-5.6-1.8-8.6c-2.3-2-3.5-4.2-3.7-6.5
									c-0.2-3.2,1.7-5.5,1.8-5.6l1.5,1.3c0,0-1.5,1.7-1.3,4.1c0.2,1.9,1.3,3.7,3.4,5.5l0.5,0.4l-0.2,0.6c-0.7,2.7-0.2,5.5,1.3,7.5
									c1.3,1.8,3.3,2.8,5.6,2.8L212.8,324.2z"/>
							</g>
						</g>
						<g>
							<g>
								<path class="st0" d="M215.6,317.6c-1.3,0-2.6-0.3-3.7-0.8l0.8-1.8c1.6,0.7,4.2,0.9,6-0.2c1.1-0.7,1.7-1.7,1.8-3l0.1-1.3
									l1.2,0.4c5.9,2.1,8.4-3.8,8.5-4.1l1.9,0.7c-1,2.6-4.4,6.8-9.9,5.5c-0.4,1.5-1.3,2.6-2.6,3.4
									C218.6,317.3,217.1,317.6,215.6,317.6z"/>
							</g>
						</g>
						<g>
							<g>
								<path class="st0" d="M225.9,309.2c-3.8-0.3-7.1-3.3-8.3-7.6c-5.4,0-9.5-1.5-12.2-4.3c-3.5-3.8-3.2-8.5-3.2-8.7l2,0.2l-1-0.1
									l1,0.1c0,0-0.3,4.1,2.7,7.2c2.4,2.5,6.3,3.8,11.5,3.7l0.8,0l0.2,0.8c0.8,3.9,3.5,6.6,6.7,6.8L225.9,309.2z"/>
							</g>
						</g>
					</g>
					<g>
						<g>
							<path class="st7" d="M264.4,306.8c0,0,16.7-6,31.4,12.5c10.8-2.5,10.1-14,10.1-14s10.6,3,12.1-3c1.1-5.4-3.7-16.8-13.5-16.3
								c-1.3-7.2-8.7-14.2-16-15.2c-7.5,3.3-15.6,6-17,13.8c-5-0.1-8.6,2.2-5.4,9.9C268.7,300.8,266.8,304.2,264.4,306.8z"/>
						</g>
						<g>
							<g>
								<g>
									<path class="st0" d="M301,287.8h-2c0-2-0.4-3.4-1.4-4.3c-1.2-1.1-3.2-1.6-6.3-1.6l-0.4,0l-0.3-0.3c-1.4-1.4-2.9-2.1-4.4-2
										c-2.4,0.1-4.1,2-4.1,2l-1.5-1.3c0.1-0.1,2.3-2.6,5.6-2.7c2-0.1,3.8,0.7,5.6,2.3c3.5,0,5.9,0.7,7.4,2.1
										C300.4,283.4,301,285.3,301,287.8z"/>
								</g>
							</g>
							<g>
								<g>
									<path class="st0" d="M293.2,309.5c-1.4,0-3.1-0.4-5-1.4c-3.9-2-4.9-4.9-5.1-6.7c-2.2,0.9-6.2,1.9-9.5-0.8
										c-3.7-3-3.2-7.4-2.5-9.3l1.9,0.7l-0.9-0.4l0.9,0.4c-0.1,0.2-1.6,4.1,1.9,7c3.5,2.9,8.6-0.1,8.7-0.1l1.8-1.1L285,300
										c0,0.2-0.5,3.9,4.1,6.4c4.8,2.5,7.4,0.3,9-1l1.3,1.5C298.4,307.8,296.3,309.5,293.2,309.5z"/>
								</g>
							</g>
							<g>
								<g>
									<path class="st0" d="M286.5,291.8c-0.9-7.2,3.9-11.5,4.1-11.6l1.3,1.5l-0.7-0.8l0.7,0.8c-0.2,0.2-4.2,3.8-3.4,9.9
										L286.5,291.8z"/>
								</g>
							</g>
							<g>
								<g>
									<path class="st0" d="M305.8,302.9c-0.1,0-0.2,0-0.2,0l0.1-2c0,0,3.4,0.1,5.2-2.4c0.8-1.2,0.7-3.1-0.3-4.6
										c-0.5-0.7-1.8-2.4-4.2-2l-0.3-2c2.5-0.4,4.8,0.7,6.2,2.9c1.4,2.2,1.5,5,0.3,6.8C310.4,302.7,306.7,302.9,305.8,302.9z"/>
								</g>
							</g>
							<g>
								<g>
									<path class="st0" d="M295.6,298.6c-3.4-2.9-2.9-10-2.9-10.3l2,0.2c-0.1,1.8,0,6.7,2.1,8.6L295.6,298.6z"/>
								</g>
							</g>
							<g>
								<g>
									<path class="st0" d="M291.9,299.9c-1.7,0-2.8-0.4-2.9-0.4l0.7-1.9c0.3,0.1,6.3,2.2,11.4-5.5l1.7,1.1
										C299,298.9,294.7,299.9,291.9,299.9z"/>
								</g>
							</g>
						</g>
					</g>
					<g>
						
							<rect x="309.6" y="320.1" transform="matrix(0.7414 -0.6711 0.6711 0.7414 -134.4797 293.1707)" class="st0" width="7" height="2"/>
					</g>
					<g>
						<g>
							<g>
								<path class="st2" d="M308.6,309c0,0,0.7,6-6.1,11c7.4,3.8,5.6,9.3,5.6,9.3s8.8,7,8.4,14.5c6.6-5,6.9-17.6,6-23.1
									S318.2,309.6,308.6,309z"/>
							</g>
						</g>
						<g>
							<g>
								<g>
									<path class="st0" d="M321.9,325.9l-1.9-0.7c0.5-1.4,0.3-3.1-0.6-4.2c-0.8-1-2-1.5-3.6-1.3l-1.4,0.1l0.4-1.4
										c0.3-1.3,0.2-2.4-0.4-3.3c-1.3-2.1-4.6-2.6-4.6-2.6l0.3-2c0.2,0,4.1,0.7,6,3.5c0.7,1.1,1,2.3,0.9,3.7
										c1.7,0.1,3.1,0.8,4,2.1C322.3,321.4,322.6,323.9,321.9,325.9z"/>
								</g>
							</g>
							<g>
								<g>
									<path class="st0" d="M318.6,338.4l-1.7-1.1l0.8,0.5l-0.8-0.5c0,0,2.1-3.5,0.4-6.2c-1.6-2.4-5.4-2.6-5.4-2.6l0-2
										c0.2,0,4.9,0.2,7.1,3.5C321.4,333.8,318.8,338.2,318.6,338.4z"/>
								</g>
							</g>
						</g>
					</g>
				</g>
				<path class="st11" d="M274.7,345.2c0,0,12.5,0.5,17.9,3.1c5.4,2.6,15.8,3.1,17.3,2.5c-3.5,7.1-15.7,68.3-9.2,105.6
					c-3.3,0-7.1,0-7.1,0S288.9,425,291,398C293,371,284.5,352.8,274.7,345.2z"/>
			</g>
		</g>
	</g>
</g>
<g id="DESIGNED_BY_FREEPIK">
</g>
</svg>
